<?xml version="1.0" encoding="UTF-8"?>
<svg width="43px" height="79px" viewBox="0 0 43 79" version="1.1" xmlns="http://www.w3.org/2000/svg" xmlns:xlink="http://www.w3.org/1999/xlink">
    <!-- Generator: Sketch 52.1 (67048) - http://www.bohemiancoding.com/sketch -->
    <title>Java_Logo</title>
    <desc>Created with Sketch.</desc>
    <g id="Mobile" stroke="none" stroke-width="1" fill="none" fill-rule="evenodd">
        <g id="omisoft_main" transform="translate(-1222.000000, -2211.000000)">
            <g id="technologies" transform="translate(0.000000, 1924.000000)">
                <g transform="translate(844.000000, 153.000000)" id="tec">
                    <g transform="translate(331.000000, 105.000000)">
                        <g id="Java_Logo" transform="translate(47.000000, 29.000000)">
                            <path d="M14.0001195,41.7779599 C14.0001195,41.7779599 11.9368673,42.9788647 15.4701494,43.3841058 C19.7512932,43.8728809 21.9389501,43.8024925 26.6553308,42.9109859 C26.6553308,42.9109859 27.8978233,43.6882458 29.6300469,44.361417 C19.0537431,48.8926846 5.69369185,44.0988647 14.0001195,41.7779599 Z" id="Path" fill="#0074BD"></path>
                            <path d="M12.7070764,35.863901 C12.7070764,35.863901 10.3926248,37.5774819 13.9285361,37.9429279 C18.5021084,38.4150918 22.1125907,38.4538114 28.3637729,37.2507554 C28.3637729,37.2507554 29.2263594,38.1269654 30.5847717,38.6058216 C17.7994195,42.3456082 3.55909518,38.9000427 12.7070764,35.863901 Z" id="Path" fill="#0074BD"></path>
                            <path d="M23.6015023,25.8303884 C26.2088604,28.8317542 22.9178148,31.530414 22.9178148,31.530414 C22.9178148,31.530414 29.534443,28.1153222 26.4963892,23.836688 C23.6579087,19.8484507 21.4817243,17.8672983 33.2631157,11.0348442 C33.2631157,11.0348442 14.7692531,15.6526334 23.6015023,25.8303884 Z" id="Path" fill="#EA2D2E"></path>
                            <path d="M37.5893128,46.1530346 C37.5893128,46.1530346 39.1167051,47.4121383 35.9070423,48.3858643 C29.8038071,50.2344857 10.4998207,50.7920956 5.13811353,48.4598378 C3.21205292,47.6209134 6.82564234,46.4581306 7.96261204,46.212548 C9.14810073,45.9560905 9.82497653,46.0029364 9.82497653,46.0029364 C7.68141699,44.4934699 -4.02982501,48.9674947 3.87697823,50.2506189 C25.4391293,53.7456594 43.181545,48.6763807 37.5893128,46.1530346 Z" id="Path" fill="#0074BD"></path>
                            <path d="M14.9930858,29.7354503 C14.9930858,29.7354503 5.17516005,32.0680666 11.516449,32.9158344 C14.194793,33.2742296 19.5308067,33.1917712 24.5048399,32.7744601 C28.5687239,32.4333931 32.6470679,31.7039351 32.6470679,31.7039351 C32.6470679,31.7039351 31.2151601,32.3181904 30.178455,33.0256594 C20.2064874,35.6484336 0.946120359,34.426974 6.49174563,31.7455228 C11.1795647,29.4776782 14.9930858,29.7354503 14.9930858,29.7354503 Z" id="Path" fill="#0074BD"></path>
                            <path d="M32.6064362,39.5797866 C42.7426035,34.3140418 38.0555015,29.2531285 34.7841741,29.9347845 C33.9842083,30.1017328 33.625335,30.2463338 33.625335,30.2463338 C33.625335,30.2463338 33.9233803,29.7794281 34.4909091,29.5785403 C40.9626974,27.3043619 45.9387623,36.2882629 32.4038753,39.8462825 C32.4037559,39.8462825 32.5594708,39.7052668 32.6064362,39.5797866 Z" id="Path" fill="#0074BD"></path>
                            <path d="M26.4965087,0 C26.4965087,0 32.1088178,5.61553564 21.1717286,14.2482117 C12.4009048,21.1757917 19.1719334,25.1242339 21.1686214,29.6378148 C16.0484336,25.0185915 12.2928724,20.95172 14.8119163,17.1672386 C18.5110713,11.61277 28.7604097,8.91889031 26.4965087,0 Z" id="Path" fill="#EA2D2E"></path>
                            <path d="M15.9896372,53.8533333 C25.7169782,54.4752369 40.6585574,53.5072471 41.0121724,48.9040376 C41.0121724,48.9040376 40.3324285,50.6490482 32.9723602,52.0336321 C24.6690397,53.5968758 14.425557,53.4148698 8.35243705,52.4121041 C8.35243705,52.4121041 9.59660265,53.4418779 15.9896372,53.8533333 Z" id="Path" fill="#0074BD"></path>
                            <path d="M40.563073,62.1086129 L40.2668203,62.1086129 L40.2668203,61.9430986 L41.0646351,61.9430986 L41.0646351,62.1086129 L40.7695775,62.1086129 L40.7695775,62.9365429 L40.5629535,62.9365429 L40.5629535,62.1086129 L40.563073,62.1086129 Z M42.1560734,62.1505591 L42.1522493,62.1505591 L41.8581477,62.9364234 L41.7228681,62.9364234 L41.4305591,62.1505591 L41.4275715,62.1505591 L41.4275715,62.9364234 L41.2318224,62.9364234 L41.2318224,61.9429791 L41.5188732,61.9429791 L41.7894324,62.6462655 L42.060828,61.9429791 L42.3462057,61.9429791 L42.3462057,62.9364234 L42.1561929,62.9364234 L42.1561929,62.1505591 L42.1560734,62.1505591 Z" id="Shape" fill="#EA2D2E"></path>
                            <path d="M14.3956808,71.4415877 C13.4783611,72.2367734 12.5083397,72.6839607 11.637627,72.6839607 C10.397405,72.6839607 9.72471191,71.9387281 9.72471191,70.7460691 C9.72471191,69.4550576 10.444968,68.5101323 13.3293385,68.5101323 L14.3956808,68.5101323 L14.3956808,71.4415877 Z M16.9278703,74.2981135 L16.9278703,65.4552283 C16.9278703,63.194793 15.6387708,61.7032522 12.5322407,61.7032522 C10.7195903,61.7032522 9.13029449,62.1513956 7.83832693,62.7220316 L8.2101067,64.2882629 C9.22769099,63.9145711 10.5435595,63.5675288 11.8355271,63.5675288 C13.6254716,63.5675288 14.3956808,64.2882629 14.3956808,65.7789671 L14.3956808,66.8970551 L13.5011865,66.8970551 C9.15323944,66.8970551 7.19156637,68.5832693 7.19156637,71.1198805 C7.19156637,73.3050277 8.48448997,74.5475203 10.9183269,74.5475203 C12.4824072,74.5475203 13.6514042,73.9015962 14.7426035,72.9563124 L14.9413402,74.2981135 L16.9278703,74.2981135 Z" id="Shape" fill="#EA2D2E"></path>
                            <path d="M25.3783013,74.2981135 L22.2206231,74.2981135 L18.4195305,61.9291165 L21.1773453,61.9291165 L23.5367307,69.5296287 L24.0614767,71.813248 C25.2523431,68.5102518 26.0968843,65.1567051 26.5192147,61.9291165 L29.2015023,61.9291165 C28.4842339,66.0018438 27.1901152,70.4727614 25.3783013,74.2981135 Z" id="Path" fill="#EA2D2E"></path>
                            <path d="M37.4952625,71.4415877 C36.5749552,72.2367734 35.6046948,72.6839607 34.7363722,72.6839607 C33.4956722,72.6839607 32.8229791,71.9387281 32.8229791,70.7460691 C32.8229791,69.4550576 33.5446692,68.5101323 36.4265301,68.5101323 L37.495143,68.5101323 L37.495143,71.4415877 L37.4952625,71.4415877 Z M40.0282885,74.2981135 L40.0282885,65.4552283 C40.0282885,63.194793 38.7354844,61.7032522 35.6318224,61.7032522 C33.8167819,61.7032522 32.2278446,62.1513956 30.9358771,62.7220316 L31.3082544,64.2882629 C32.3263167,63.9145711 33.6439778,63.5675288 34.9358259,63.5675288 C36.7236193,63.5675288 37.495143,64.2882629 37.495143,65.7789671 L37.495143,66.8970551 L36.6006487,66.8970551 C32.2517456,66.8970551 30.2906701,68.5832693 30.2906701,71.1198805 C30.2906701,73.3050277 31.5818011,74.5475203 34.0155186,74.5475203 C35.5809134,74.5475203 36.7476398,73.9015962 37.8418267,72.9563124 L38.0418779,74.2981135 L40.0282885,74.2981135 Z" id="Shape" fill="#EA2D2E"></path>
                            <path d="M4.41463082,76.4002049 C3.69317968,77.4543577 2.52645327,78.289458 1.25026035,78.7603073 L0,77.2875288 C0.972172429,76.7882373 1.80488263,75.9834913 2.19231754,75.2341955 C2.52645327,74.5662825 2.66555698,73.7077593 2.66555698,71.6525139 L2.66555698,57.5294238 L5.35668801,57.5294238 L5.35668801,71.4578404 C5.35668801,74.2065728 5.137277,75.3178489 4.41463082,76.4002049 Z" id="Path" fill="#EA2D2E"></path>
                        </g>
                    </g>
                </g>
            </g>
        </g>
    </g>
</svg>