<?xml version="1.0" encoding="UTF-8"?>
<svg width="71px" height="64px" viewBox="0 0 71 64" version="1.1" xmlns="http://www.w3.org/2000/svg" xmlns:xlink="http://www.w3.org/1999/xlink">
    <!-- Generator: Sketch 52.1 (67048) - http://www.bohemiancoding.com/sketch -->
    <title>Path</title>
    <desc>Created with Sketch.</desc>
    <defs>
        <linearGradient x1="50%" y1="0%" x2="50%" y2="100%" id="linearGradient-1">
            <stop stop-color="#F88A36" offset="0%"></stop>
            <stop stop-color="#FD2020" offset="100%"></stop>
        </linearGradient>
    </defs>
    <g id="Mobile" stroke="none" stroke-width="1" fill="none" fill-rule="evenodd">
        <g id="omisoft_main" transform="translate(-795.000000, -2521.000000)" fill="url(#linearGradient-1)">
            <g id="technologies" transform="translate(0.000000, 1924.000000)">
                <g id="background" transform="translate(-262.000000, 0.000000)">
                    <g id="technologies" transform="translate(262.000000, -42.000000)">
                        <g id="tec" transform="translate(762.000000, 603.000000)">
                            <path d="M54.9466667,95.1162667 C45.6536889,91.1624889 37.9429333,84.2416 33,76.3340444 C35.3726222,78.3109333 38.1406222,79.8931556 41.1063111,81.2762667 C52.9591111,86.8318222 64.8094222,86.4513778 73.1489778,81.2904889 C73.1436444,81.2851556 73.1400889,81.2816 73.1365333,81.2762667 C61.2734222,72.1811556 51.1898667,60.3180444 43.6769778,50.6309333 C42.0945778,49.0490667 40.9082667,47.0718222 39.7219556,45.2924444 C48.8168889,53.5964444 63.2508444,64.0746667 68.3904,67.0417778 C57.5175111,55.5733333 47.8286222,41.3386667 48.2232889,41.7333333 C65.4250667,59.1324444 81.4410667,69.0186667 81.4410667,69.0186667 C81.9708444,69.3173333 82.3797333,69.5662222 82.7086222,69.7884444 C83.0552889,68.9066667 83.3592889,67.9911111 83.6152889,67.0417778 C86.3832889,56.9582222 83.2206222,45.4897778 76.2997333,36 C92.3139556,45.688 101.805511,63.8773333 97.8499556,79.1022222 C97.7468444,79.5128889 97.6348444,79.9182222 97.5139556,80.3164444 C97.5601778,80.3715556 97.6064,80.4284444 97.6526222,80.4871111 C105.560178,90.3733333 103.385956,100.851556 102.397511,98.8746667 C98.1077333,90.48 90.1664,93.0471111 86.1290667,94.7502222 C77.832,99.5429333 66.424,100.035378 54.9466667,95.1162667 Z" id="Path"></path>
                        </g>
                    </g>
                </g>
            </g>
        </g>
    </g>
</svg>