<?xml version="1.0" encoding="UTF-8"?>
<svg width="103px" height="103px" viewBox="0 0 103 103" version="1.1" xmlns="http://www.w3.org/2000/svg" xmlns:xlink="http://www.w3.org/1999/xlink">
    <!-- Generator: Sketch 52.1 (67048) - http://www.bohemiancoding.com/sketch -->
    <title>web_dev_underlay</title>
    <desc>Created with Sketch.</desc>
    <g id="Symbols" stroke="none" stroke-width="1" fill="none" fill-rule="evenodd">
        <g id="web_dev_underlay" transform="translate(-13.000000, -13.000000)" fill="#F5EDFD">
            <path d="M52.4397069,28.261271 L52.4397069,20.2331091 C52.4397069,13.668436 57.7614259,8.34671709 64.3260989,8.34671709 C70.8907719,8.34671709 76.2124909,13.668436 76.2124909,20.2331091 L76.2124909,28.379609 C77.8131737,23.7063081 82.2444121,20.3467171 87.4603251,20.3467171 C94.0249981,20.3467171 99.3467171,25.668436 99.3467171,32.2331091 L99.3467171,96.4603251 C99.3467171,103.024998 94.0249981,108.346717 87.4603251,108.346717 C82.2444121,108.346717 77.8131737,104.987126 76.2124909,100.313825 L76.2124909,108.460325 C76.2124909,115.024998 70.8907719,120.346717 64.3260989,120.346717 C57.7614259,120.346717 52.4397069,115.024998 52.4397069,108.460325 L52.4397069,100.432163 C50.8052195,105.043736 46.4048906,108.346717 41.2331091,108.346717 C34.668436,108.346717 29.3467171,103.024998 29.3467171,96.4603251 L29.3467171,32.2331091 C29.3467171,25.668436 34.668436,20.3467171 41.2331091,20.3467171 C46.4048906,20.3467171 50.8052195,23.6496981 52.4397069,28.261271 Z" transform="translate(64.346717, 64.346717) rotate(-315.000000) translate(-64.346717, -64.346717) "></path>
        </g>
    </g>
</svg>