<?xml version="1.0" encoding="UTF-8"?>
<svg width="205px" height="56px" viewBox="0 0 205 56" version="1.1" xmlns="http://www.w3.org/2000/svg" xmlns:xlink="http://www.w3.org/1999/xlink">
    <!-- Generator: Sketch 52.1 (67048) - http://www.bohemiancoding.com/sketch -->
    <title>footer_logo</title>
    <desc>Created with Sketch.</desc>
    <g id="Symbols" stroke="none" stroke-width="1" fill="none" fill-rule="evenodd">
        <g id="footer_logo" transform="translate(1.000000, 0.000000)" fill="#2F2F2F" fill-rule="nonzero">
            <path d="M31.0900263,19.7106243 L26.9763034,12.5854473 C26.2672382,11.3573103 26.688029,9.78689761 27.916166,9.07783239 C29.144303,8.36876717 30.7147157,8.78955798 31.4237809,10.017695 L42.073901,28.4642441 C47.2320468,37.3984147 44.444338,48.6646676 35.8473791,53.6281242 C27.2504202,58.5915807 16.0997046,55.3726809 10.9415588,46.4385102 L0.291438683,27.9919611 C-0.417626538,26.7638241 0.00316427039,25.1934115 1.23130126,24.4843462 C2.45943825,23.775281 4.02985092,24.1960718 4.73891614,25.4242088 L8.85263904,32.5493859 C9.11629148,31.4355929 9.48242893,30.3504702 9.94717684,29.3096763 L2.21870605,15.9235723 C1.50964083,14.6954353 1.93043164,13.1250226 3.15856863,12.4159574 C4.38670561,11.7068922 5.95711829,12.127683 6.66618351,13.35582 L13.1073696,24.5122816 C13.6994192,23.8732344 14.3438243,23.274346 15.0389244,22.7223279 L4.14597342,3.85518343 C3.4369082,2.62704644 3.85769901,1.05663377 5.08583599,0.347568546 C6.31397298,-0.361496674 7.88438566,0.0592941339 8.59345088,1.28743112 L19.4864018,20.1545756 C20.3120135,19.8286104 21.1528687,19.5699834 22.0023246,19.376777 L15.5611384,8.22031535 C14.8520732,6.99217836 15.272864,5.42176569 16.501001,4.71270047 C17.729138,4.00363525 19.2995507,4.42442606 20.0086159,5.65256304 L27.7370867,19.0386671 C28.8708145,19.1565805 29.9936271,19.3820576 31.0900263,19.7106243 Z M33.1789079,49.0061964 C39.3195928,45.4608703 41.3108134,37.4135469 37.6264235,31.0319964 C33.9420336,24.6504459 25.9772368,22.3512318 19.8365519,25.8965579 C13.6958669,29.441884 11.7046463,37.4892074 15.3890362,43.8707579 C19.0734261,50.2523084 27.038223,52.5515225 33.1789079,49.0061964 Z M31.3999271,45.9249113 C26.8967581,48.5248171 21.0559071,46.8387267 18.3540212,42.158923 C15.6521353,37.4791194 17.1123637,31.5777488 21.6155327,28.977843 C26.1187016,26.3779372 31.9595526,28.0640276 34.6614386,32.7438313 C37.3633245,37.4236349 35.9030961,43.3250055 31.3999271,45.9249113 Z M78.9492012,23.0083582 C79.6615014,23.0083582 80.2811933,23.2673693 80.8082954,23.7853991 C81.3353976,24.303429 81.5989447,24.9472565 81.5989447,25.7169008 L81.5989447,51.4258544 C81.5989447,52.1954988 81.3567663,52.8393263 80.8724021,53.3573561 C80.388038,53.875386 79.7469774,54.134397 78.9492012,54.134397 C78.151425,54.134397 77.5032415,53.8827863 77.0046313,53.3795573 C76.5060212,52.8763283 76.2567199,52.2251005 76.2567199,51.4258544 L76.2567199,33.5317123 L69.2049831,44.7211014 C68.920063,45.0763219 68.5924098,45.3649342 68.2220137,45.586947 C67.8516176,45.8089598 67.4669813,45.9051639 67.0680932,45.8755622 C66.6976971,45.9051639 66.3273065,45.8089598 65.9569104,45.586947 C65.5865143,45.3649342 65.2588611,45.0763219 64.973941,44.7211014 L57.9222043,33.1320912 L57.9222043,51.4258544 C57.9222043,52.2251005 57.6942716,52.8763283 57.2383995,53.3795573 C56.7825273,53.8827863 56.1842041,54.134397 55.4434119,54.134397 C54.7311117,54.134397 54.1470343,53.875386 53.6911622,53.3573561 C53.2352901,52.8393263 53.0073574,52.1954988 53.0073574,51.4258544 L53.0073574,25.7169008 C53.0073574,24.9768582 53.2709045,24.340431 53.7980067,23.8076003 C54.3251088,23.2747696 54.9590465,23.0083582 55.6998387,23.0083582 C56.1272189,23.0083582 56.5545926,23.119363 56.9819727,23.3413758 C57.4093528,23.5633886 57.737006,23.8520009 57.9649421,24.2072214 L67.2817822,39.0820045 L76.8550491,24.2072214 C77.0829851,23.8520009 77.3892696,23.5633886 77.7739117,23.3413758 C78.1585538,23.119363 78.5503131,23.0083582 78.9492012,23.0083582 Z M93.3518393,51.4258544 C93.3518393,52.1954988 93.0811693,52.8393263 92.5398212,53.3573561 C91.998473,53.875386 91.3716582,54.134397 90.659358,54.134397 C89.8900738,54.134397 89.2561361,53.875386 88.757526,53.3573561 C88.2589158,52.8393263 88.0096145,52.1954988 88.0096145,51.4258544 L88.0096145,25.7613032 C88.0096145,24.9916588 88.2660387,24.3478313 88.7788949,23.8298015 C89.291751,23.3117716 89.9470574,23.0527606 90.7448336,23.0527606 C91.4571338,23.0527606 92.0697028,23.3117716 92.582559,23.8298015 C93.0954151,24.3478313 93.3518393,24.9916588 93.3518393,25.7613032 L93.3518393,51.4258544 Z M109.378514,54.5784204 C107.327089,54.5784204 105.503628,54.312009 103.908076,53.7791783 C102.312523,53.2463476 100.816715,52.3435091 99.4206067,51.0706357 C98.6513225,50.3601948 98.2666862,49.5757613 98.2666862,48.7173118 C98.2666862,48.0364726 98.5088646,47.437047 98.9932287,46.9190171 C99.4775929,46.4009873 100.06167,46.1419762 100.745478,46.1419762 C101.286827,46.1419762 101.771184,46.3195838 102.198564,46.6748043 C103.338244,47.6516606 104.449416,48.3620909 105.532112,48.8061165 C106.614808,49.2501421 107.896929,49.4721516 109.378514,49.4721516 C110.974066,49.4721516 112.348785,49.1021358 113.502711,48.3620931 C114.656638,47.6220504 115.233592,46.7044113 115.233592,45.6091482 C115.233592,44.2770714 114.663761,43.2336269 113.52408,42.4787834 C112.3844,41.7239398 110.575185,41.1541155 108.09638,40.7692933 C101.85663,39.8220387 98.736802,36.80271 98.736802,31.7112164 C98.736802,29.8463089 99.206913,28.2256398 100.147149,26.8491605 C101.087386,25.4726811 102.369507,24.4218363 103.993551,23.6965945 C105.617596,22.9713527 107.426811,22.6087372 109.421252,22.6087372 C111.216248,22.6087372 112.904374,22.8899492 114.485681,23.4523816 C116.066987,24.014814 117.384723,24.7548456 118.438927,25.6724985 C119.265195,26.3533377 119.678323,27.1377712 119.678323,28.0258224 C119.678323,28.7066617 119.436145,29.3060872 118.951781,29.8241171 C118.467417,30.3421469 117.897585,30.601158 117.242269,30.601158 C116.814889,30.601158 116.430252,30.4679523 116.088348,30.201537 C115.347556,29.5799011 114.314736,29.0100768 112.989858,28.4920469 C111.664979,27.9740171 110.475456,27.715006 109.421252,27.715006 C107.626255,27.715006 106.237291,28.0628209 105.254316,28.758461 C104.271342,29.4541011 103.779862,30.3643399 103.779862,31.4892048 C103.779862,32.7620781 104.285588,33.7241192 105.297054,34.3753567 C106.30852,35.0265943 107.896926,35.559417 110.062319,35.9738409 C112.512631,36.4178665 114.471427,36.9876908 115.938766,37.6833309 C117.406104,38.378971 118.510153,39.3262114 119.250945,40.5250805 C119.991738,41.7239496 120.362128,43.3150175 120.362128,45.2983318 C120.362128,47.1632393 119.856403,48.7987091 118.844936,50.2047901 C117.83347,51.6108712 116.487243,52.6913173 114.806214,53.4461608 C113.125186,54.2010043 111.31597,54.5784204 109.378514,54.5784204 Z M152.800117,38.5935788 C152.800117,41.5241477 152.173302,44.2104623 150.919654,46.6526031 C149.666006,49.0947439 147.935142,51.0262263 145.727012,52.4471082 C143.518881,53.8679901 141.03299,54.5784204 138.269266,54.5784204 C135.505541,54.5784204 133.01965,53.8679901 130.81152,52.4471082 C128.603389,51.0262263 126.879649,49.0947439 125.640246,46.6526031 C124.400844,44.2104623 123.781152,41.5241477 123.781152,38.5935788 C123.781152,35.6630099 124.400844,32.9766953 125.640246,30.5345545 C126.879649,28.0924137 128.603389,26.1609313 130.81152,24.7400494 C133.01965,23.3191675 135.505541,22.6087372 138.269266,22.6087372 C141.03299,22.6087372 143.518881,23.3191675 145.727012,24.7400494 C147.935142,26.1609313 149.666006,28.0924137 150.919654,30.5345545 C152.173302,32.9766953 152.800117,35.6630099 152.800117,38.5935788 Z M147.244203,38.5935788 C147.244203,36.6102645 146.859567,34.8119878 146.090283,33.1986948 C145.320999,31.5854017 144.252564,30.3051471 142.884948,29.3578925 C141.517332,28.4106379 139.978786,27.9370177 138.269266,27.9370177 C136.531253,27.9370177 134.985585,28.4032376 133.632215,29.3356914 C132.278844,30.2681451 131.224656,31.5483997 130.469617,33.1764936 C129.714579,34.8045874 129.337066,36.6102645 129.337066,38.5935788 C129.337066,40.5768931 129.714579,42.3825701 130.469617,44.010664 C131.224656,45.6387579 132.278844,46.9190125 133.632215,47.8514662 C134.985585,48.78392 136.531253,49.2501399 138.269266,49.2501399 C139.978786,49.2501399 141.517332,48.7765197 142.884948,47.8292651 C144.252564,46.8820105 145.320999,45.6017558 146.090283,43.9884628 C146.859567,42.3751698 147.244203,40.5768931 147.244203,38.5935788 Z M163.057189,28.1590294 L163.057189,35.9738409 L172.288553,35.9738409 C173.029346,35.9738409 173.649038,36.2180513 174.147648,36.7064794 C174.646258,37.1949076 174.895559,37.8239344 174.895559,38.5935788 C174.895559,39.2448163 174.646258,39.822041 174.147648,40.32527 C173.649038,40.828499 173.029346,41.0801097 172.288553,41.0801097 L163.057189,41.0801097 L163.057189,51.4258544 C163.057189,52.1954988 162.793642,52.8393263 162.26654,53.3573561 C161.739437,53.875386 161.119746,54.134397 160.407445,54.134397 C159.609669,54.134397 158.961486,53.8827863 158.462876,53.3795573 C157.964265,52.8763283 157.714964,52.2251005 157.714964,51.4258544 L157.714964,25.7613032 C157.714964,24.9916588 157.964265,24.3478313 158.462876,23.8298015 C158.961486,23.3117716 159.581178,23.0527606 160.32197,23.0527606 L174.211754,23.0527606 C174.952547,23.0527606 175.572238,23.296971 176.070849,23.7853991 C176.569459,24.2738273 176.81876,24.9028541 176.81876,25.6724985 C176.81876,26.323736 176.569459,26.9009607 176.070849,27.4041897 C175.572238,27.9074187 174.952547,28.1590294 174.211754,28.1590294 L163.057189,28.1590294 Z M201.392994,23.0527606 C202.162279,23.0527606 202.789093,23.2895707 203.273457,23.763198 C203.757822,24.2368253 204,24.8584518 204,25.6280962 C204,26.3977405 203.757822,27.0119667 203.273457,27.4707932 C202.789093,27.9296196 202.162279,28.1590294 201.392994,28.1590294 L194.68316,28.1590294 L194.68316,51.4258544 C194.68316,52.1954988 194.41249,52.8393263 193.871142,53.3573561 C193.329794,53.875386 192.660241,54.134397 191.862465,54.134397 C191.064689,54.134397 190.409383,53.875386 189.896526,53.3573561 C189.38367,52.8393263 189.127246,52.1954988 189.127246,51.4258544 L189.127246,28.1590294 L182.417412,28.1590294 C181.648127,28.1590294 181.021313,27.9222193 180.536949,27.448592 C180.052584,26.9749647 179.810406,26.3533382 179.810406,25.5836938 C179.810406,24.8436512 180.059707,24.2368253 180.558317,23.763198 C181.056928,23.2895707 181.676619,23.0527606 182.417412,23.0527606 L201.392994,23.0527606 Z"></path>
        </g>
    </g>
</svg>