<?xml version="1.0" encoding="UTF-8"?>
<svg width="44px" height="43px" viewBox="0 0 44 43" version="1.1" xmlns="http://www.w3.org/2000/svg" xmlns:xlink="http://www.w3.org/1999/xlink">
    <!-- Generator: Sketch 52.1 (67048) - http://www.bohemiancoding.com/sketch -->
    <title>blockchain_icon</title>
    <desc>Created with Sketch.</desc>
    <g id="Symbols" stroke="none" stroke-width="1" fill="none" fill-rule="evenodd">
        <g id="blockchain_icon" fill="#F53C3C">
            <g>
                <path d="M10.4713959,10.5647526 L18.5263158,7.43157485 L18.5263158,13.5449373 C18.5263158,15.0760091 17.6523439,16.4727572 16.2754067,17.1422531 L10.4713959,19.9642857 L10.4713959,10.5647526 Z M2.15827356e-13,7.43157485 L7.24942792,10.5647526 L7.24942792,19.9642857 L2.09873495,17.1816461 C0.80580553,16.4831465 2.14675056e-13,15.1319329 2.14495088e-13,13.662386 L2.15827356e-13,7.43157485 Z M4.60076421e-13,4.29839713 L7.06486498,0.551030007 C8.1932397,-0.0474859372 9.53960015,-0.0711337712 10.6882974,0.487387075 L18.5263158,4.29839713 L8.8604119,8.21486928 L4.60076421e-13,4.29839713 Z" id="Combined-Shape"></path>
                <path d="M35.9450801,10.5647526 L44,7.43157485 L44,13.5449373 C44,15.0760091 43.1260281,16.4727572 41.7490909,17.1422531 L35.9450801,19.9642857 L35.9450801,10.5647526 Z M25.4736842,7.43157485 L32.7231121,10.5647526 L32.7231121,19.9642857 L27.5724192,17.1816461 C26.2794897,16.4831465 25.4736842,15.1319329 25.4736842,13.662386 L25.4736842,7.43157485 Z M25.4736842,4.29839713 L32.5385492,0.551030007 C33.6669239,-0.0474859372 35.0132844,-0.0711337712 36.1619816,0.487387075 L44,4.29839713 L34.3340961,8.21486928 L25.4736842,4.29839713 Z" id="Combined-Shape"></path>
                <rect id="Rectangle" x="17.754386" y="34.0178571" width="9.26315789" height="2.30357143"></rect>
                <rect id="Rectangle" x="17.754386" y="10.9821429" width="9.26315789" height="2.30357143"></rect>
                <path d="M10.4713959,33.6004669 L18.5263158,30.4672891 L18.5263158,36.5806516 C18.5263158,38.1117234 17.6523439,39.5084714 16.2754067,40.1779674 L10.4713959,43 L10.4713959,33.6004669 Z M2.15827356e-13,30.4672891 L7.24942792,33.6004669 L7.24942792,43 L2.09873495,40.2173604 C0.80580553,39.5188608 2.14675056e-13,38.1676472 2.14495088e-13,36.6981003 L2.15827356e-13,30.4672891 Z M4.60076421e-13,27.3341114 L7.06486498,23.5867443 C8.1932397,22.9882283 9.53960015,22.9645805 10.6882974,23.5231014 L18.5263158,27.3341114 L8.8604119,31.2505836 L4.60076421e-13,27.3341114 Z" id="Combined-Shape"></path>
                <path d="M35.9450801,33.6004669 L44,30.4672891 L44,36.5806516 C44,38.1117234 43.1260281,39.5084714 41.7490909,40.1779674 L35.9450801,43 L35.9450801,33.6004669 Z M25.4736842,30.4672891 L32.7231121,33.6004669 L32.7231121,43 L27.5724192,40.2173604 C26.2794897,39.5188608 25.4736842,38.1676472 25.4736842,36.6981003 L25.4736842,30.4672891 Z M25.4736842,27.3341114 L32.5385492,23.5867443 C33.6669239,22.9882283 35.0132844,22.9645805 36.1619816,23.5231014 L44,27.3341114 L34.3340961,31.2505836 L25.4736842,27.3341114 Z" id="Combined-Shape"></path>
            </g>
        </g>
    </g>
</svg>