<?xml version="1.0" encoding="UTF-8"?>
<svg width="104px" height="96px" viewBox="0 0 104 96" version="1.1" xmlns="http://www.w3.org/2000/svg" xmlns:xlink="http://www.w3.org/1999/xlink">
    <!-- Generator: Sketch 52.1 (67048) - http://www.bohemiancoding.com/sketch -->
    <title>blockchain_underlay</title>
    <desc>Created with Sketch.</desc>
    <g id="Symbols" stroke="none" stroke-width="1" fill="none" fill-rule="evenodd">
        <g id="blockchain_underlay" fill="#FFEAEA">
            <path d="M83.2095696,58.6255902 C77.1159661,75.1155424 61.3925384,86.8571429 42.9565217,86.8571429 C41.1061768,86.8571429 39.2831565,86.7388663 37.4944544,86.5093836 C33.8781747,92.2170705 27.5499738,96 20.3478261,96 C9.11003205,96 0,86.7898577 0,75.4285714 C0,70.5908043 1.65178994,66.1430729 4.41629504,62.6303759 C1.58875979,56.8408138 0,50.3222688 0,43.4285714 C0,19.4436337 19.2322899,0 42.9565217,0 C61.3925384,0 77.1159661,11.7416004 83.2095696,28.2315527 C84.7709425,27.7105226 86.439859,27.4285714 88.173913,27.4285714 C96.9144195,27.4285714 104,34.5920154 104,43.4285714 C104,52.2651274 96.9144195,59.4285714 88.173913,59.4285714 C86.439859,59.4285714 84.7709425,59.1466203 83.2095696,58.6255902 Z"></path>
        </g>
    </g>
</svg>