<?xml version="1.0" encoding="UTF-8"?>
<svg width="117px" height="32px" viewBox="0 0 117 32" version="1.1" xmlns="http://www.w3.org/2000/svg" xmlns:xlink="http://www.w3.org/1999/xlink">
    <!-- Generator: Sketch 52.1 (67048) - http://www.bohemiancoding.com/sketch -->
    <title>logo</title>
    <desc>Created with Sketch.</desc>
    <g id="Symbols" stroke="none" stroke-width="1" fill="none" fill-rule="evenodd">
        <g id="logo_header" transform="translate(-1.000000, 0.000000)" fill="#FFFFFF" fill-rule="nonzero">
            <path d="M18.832085,11.2497278 L16.4840834,7.18286978 C16.0774137,6.4784971 16.3187496,5.57781924 17.0231223,5.17114948 C17.7274949,4.76447972 18.6281728,5.00581563 19.0348426,5.71018831 L25.1179282,16.2464018 C28.0654402,21.3516422 26.4578225,27.7979541 21.5272137,30.6446424 C16.5966049,33.4913307 10.2101262,31.6604125 7.26261434,26.5551721 L1.17952864,16.0189586 C0.772858885,15.3145859 1.01419479,14.4139081 1.71856747,14.0072383 C2.42294016,13.6005685 3.32361802,13.8419044 3.73028777,14.5462771 L6.07828935,18.6131352 C6.23037652,17.9758572 6.44116194,17.3548841 6.70841125,16.7591754 L2.29483944,9.11464475 C1.88816968,8.41027207 2.12950559,7.50959421 2.83387827,7.10292445 C3.53825096,6.69625469 4.43892881,6.9375906 4.84559857,7.64196328 L8.52357914,14.0124125 C8.86340737,13.6463684 9.23319902,13.3032458 9.63199641,12.9868846 L3.41015024,2.2103309 C3.00348048,1.50595821 3.24481639,0.605280357 3.94918907,0.198610598 C4.65356176,-0.208059161 5.55423961,0.0332767437 5.96090937,0.737649428 L12.1827555,11.5142031 C12.6561311,11.327015 13.1381798,11.1783274 13.6250974,11.0670496 L9.94711683,4.69660034 C9.54044708,3.99222766 9.78178298,3.0915498 10.4861557,2.68488004 C11.1905283,2.27821028 12.0912062,2.51954619 12.497876,3.22391887 L16.9114478,10.8684495 C17.5609713,10.9348592 18.2041425,11.0628002 18.832085,11.2497278 Z M20.002373,28.0035408 C23.5242364,25.970192 24.6725348,21.3656835 22.5671691,17.7190833 C20.4618035,14.072483 15.900033,12.7646843 12.3781696,14.7980331 C8.85630614,16.8313819 7.70800782,21.4358903 9.81337347,25.0824906 C11.9187391,28.7290909 16.4805096,30.0368896 20.002373,28.0035408 Z M18.9858126,26.2428065 C16.4031127,27.7339289 13.0578144,26.7748765 11.5138796,24.100703 C9.96994474,21.4265294 10.8120302,18.0498899 13.39473,16.5587674 C15.9774299,15.067645 19.3227282,16.0266974 20.866663,18.7008709 C22.4105978,21.3750444 21.5685124,24.751684 18.9858126,26.2428065 Z M46.2796889,13.1476333 C46.688214,13.1476333 47.0436256,13.2956396 47.3459341,13.5916567 C47.6482427,13.8876737 47.7993948,14.2555751 47.7993948,14.6953719 L47.7993948,29.3862025 C47.7993948,29.8259993 47.6604983,30.1939007 47.3827012,30.4899178 C47.1049041,30.7859348 46.737237,30.9339412 46.2796889,30.9339412 C45.8221408,30.9339412 45.4503885,30.7901636 45.1644209,30.5026042 C44.8784533,30.2150447 44.7354717,29.8429146 44.7354717,29.3862025 L44.7354717,19.1609785 L40.6910932,25.5549151 C40.5276832,25.7578982 40.3397645,25.9228195 40.1273314,26.049684 C39.9148983,26.1765485 39.6942981,26.2315222 39.465524,26.214607 C39.253091,26.2315222 39.0406611,26.1765485 38.828228,26.049684 C38.615795,25.9228195 38.4278762,25.7578982 38.2644662,25.5549151 L34.2200877,18.9326236 L34.2200877,29.3862025 C34.2200877,29.8429146 34.0893617,30.2150447 33.8279056,30.5026042 C33.5664495,30.7901636 33.2232936,30.9339412 32.7984274,30.9339412 C32.3899023,30.9339412 32.0549167,30.7859348 31.7934607,30.4899178 C31.5320046,30.1939007 31.4012785,29.8259993 31.4012785,29.3862025 L31.4012785,14.6953719 C31.4012785,14.2724904 31.5524305,13.9088177 31.8547391,13.604343 C32.1570477,13.2998683 32.5206296,13.1476333 32.9454957,13.1476333 C33.1906108,13.1476333 33.4357222,13.2110646 33.6808373,13.337929 C33.9259523,13.4647935 34.1138711,13.6297148 34.2445991,13.8326979 L39.5880809,22.332574 L45.0786311,13.8326979 C45.2093591,13.6297148 45.3850223,13.4647935 45.6056258,13.337929 C45.8262294,13.2110646 46.0509148,13.1476333 46.2796889,13.1476333 Z M54.5400255,29.3862025 C54.5400255,29.8259993 54.3847883,30.1939007 54.0743092,30.4899178 C53.7638301,30.7859348 53.4043334,30.9339412 52.9958083,30.9339412 C52.5546011,30.9339412 52.1910192,30.7859348 51.9050517,30.4899178 C51.6190841,30.1939007 51.4761024,29.8259993 51.4761024,29.3862025 L51.4761024,14.7207447 C51.4761024,14.2809479 51.6231693,13.9130465 51.9173074,13.6170294 C52.2114454,13.3210124 52.5872829,13.173006 53.044831,13.173006 C53.4533562,13.173006 53.8046825,13.3210124 54.0988206,13.6170294 C54.3929587,13.9130465 54.5400255,14.2809479 54.5400255,14.7207447 L54.5400255,29.3862025 Z M63.7317947,31.1876688 C62.5552423,31.1876688 61.5094337,31.0354337 60.5943375,30.730959 C59.6792412,30.4264843 58.8213513,29.9105766 58.0206421,29.1832204 C57.579435,28.7772541 57.3588347,28.3290065 57.3588347,27.8384639 C57.3588347,27.4494129 57.4977312,27.106884 57.7755283,26.8108669 C58.0533253,26.5148499 58.3883109,26.3668436 58.780495,26.3668436 C59.0909741,26.3668436 59.368767,26.4683336 59.6138821,26.6713167 C60.2675223,27.2295203 60.9048119,27.6354805 61.5257701,27.8892094 C62.1467283,28.1429383 62.8820624,28.2698009 63.7317947,28.2698009 C64.646891,28.2698009 65.4353326,28.0583633 66.0971433,27.6354818 C66.758954,27.2126003 67.0898544,26.688235 67.0898544,26.0623704 C67.0898544,25.3011836 66.7630392,24.7049296 66.109399,24.2735905 C65.4557588,23.8422513 64.4181206,23.5166374 62.9964532,23.2967391 C59.4177731,22.7554507 57.6284599,21.03012 57.6284599,18.1206951 C57.6284599,17.0550337 57.8980825,16.128937 58.4373356,15.3423774 C58.9765888,14.5558178 59.711923,13.955335 60.6433602,13.5409111 C61.5747975,13.1264872 62.6124357,12.9192784 63.7563061,12.9192784 C64.7857894,12.9192784 65.7539794,13.079971 66.6609051,13.4013609 C67.5678309,13.7227509 68.323591,14.1456261 68.9282082,14.6699991 C69.4020973,15.0590501 69.6390384,15.5072978 69.6390384,16.0147557 C69.6390384,16.4038067 69.5001419,16.7463356 69.2223448,17.0423526 C68.9445477,17.3383697 68.6177325,17.486376 68.2418894,17.486376 C67.9967744,17.486376 67.7761741,17.4102585 67.5800821,17.2580211 C67.1552159,16.9028006 66.5628634,16.5771868 65.8030067,16.2811697 C65.04315,15.9851526 64.3609232,15.8371463 63.7563061,15.8371463 C62.7268228,15.8371463 61.9302107,16.0358976 61.3664461,16.4334063 C60.8026814,16.8309149 60.5208033,17.3510514 60.5208033,17.9938313 C60.5208033,18.7211875 60.8108518,19.2709252 61.3909575,19.643061 C61.9710631,20.0151967 62.8820605,20.3196668 64.1239768,20.5564805 C65.5293032,20.8102094 66.6527305,21.1358233 67.4942922,21.5333319 C68.335854,21.9308406 68.9690584,22.4721208 69.3939245,23.1571889 C69.8187906,23.8422569 70.0312205,24.7514386 70.0312205,25.884761 C70.0312205,26.9504225 69.741172,27.8849766 69.1610664,28.6884515 C68.5809607,29.4919264 67.8088598,30.1093242 66.8447405,30.5406633 C65.8806212,30.9720025 64.842983,31.1876688 63.7317947,31.1876688 Z M88.6353614,22.0534736 C88.6353614,23.7280844 88.2758646,25.2631213 87.5568604,26.6586303 C86.8378562,28.0541394 85.8451551,29.1578436 84.5787272,29.9697761 C83.3122994,30.7817086 81.8865681,31.1876688 80.3014906,31.1876688 C78.7164132,31.1876688 77.2906819,30.7817086 76.024254,29.9697761 C74.7578262,29.1578436 73.7692102,28.0541394 73.0583765,26.6586303 C72.3475428,25.2631213 71.9921313,23.7280844 71.9921313,22.0534736 C71.9921313,20.3788628 72.3475428,18.8438259 73.0583765,17.4483169 C73.7692102,16.0528078 74.7578262,14.9491036 76.024254,14.1371711 C77.2906819,13.3252386 78.7164132,12.9192784 80.3014906,12.9192784 C81.8865681,12.9192784 83.3122994,13.3252386 84.5787272,14.1371711 C85.8451551,14.9491036 86.8378562,16.0528078 87.5568604,17.4483169 C88.2758646,18.8438259 88.6353614,20.3788628 88.6353614,22.0534736 Z M85.4488814,22.0534736 C85.4488814,20.9201511 85.2282811,19.8925644 84.787074,18.9706827 C84.3458669,18.048801 83.7330884,17.3172269 82.9487201,16.7759386 C82.1643519,16.2346502 81.2819509,15.9640101 80.3014906,15.9640101 C79.3046893,15.9640101 78.4182031,16.2304215 77.6420054,16.7632522 C76.8658077,17.2960829 76.2611996,18.027657 75.8281629,18.9579963 C75.3951263,19.8883357 75.1786113,20.9201511 75.1786113,22.0534736 C75.1786113,23.1867961 75.3951263,24.2186115 75.8281629,25.1489509 C76.2611996,26.0792902 76.8658077,26.8108643 77.6420054,27.343695 C78.4182031,27.8765257 79.3046893,28.1429371 80.3014906,28.1429371 C81.2819509,28.1429371 82.1643519,27.872297 82.9487201,27.3310086 C83.7330884,26.7897203 84.3458669,26.0581462 84.787074,25.1362645 C85.2282811,24.2143828 85.4488814,23.1867961 85.4488814,22.0534736 Z M94.5180936,16.090874 L94.5180936,20.5564805 L99.8125527,20.5564805 C100.237419,20.5564805 100.59283,20.6960293 100.878798,20.9751311 C101.164766,21.2542329 101.307747,21.6136768 101.307747,22.0534736 C101.307747,22.4256093 101.164766,22.755452 100.878798,23.0430114 C100.59283,23.3305708 100.237419,23.4743484 99.8125527,23.4743484 L94.5180936,23.4743484 L94.5180936,29.3862025 C94.5180936,29.8259993 94.3669416,30.1939007 94.064633,30.4899178 C93.7623244,30.7859348 93.4069129,30.9339412 92.9983878,30.9339412 C92.5408397,30.9339412 92.1690874,30.7901636 91.8831198,30.5026042 C91.5971522,30.2150447 91.4541706,29.8429146 91.4541706,29.3862025 L91.4541706,14.7207447 C91.4541706,14.2809479 91.5971522,13.9130465 91.8831198,13.6170294 C92.1690874,13.3210124 92.5244989,13.173006 92.949365,13.173006 L100.915565,13.173006 C101.340431,13.173006 101.695843,13.3125548 101.98181,13.5916567 C102.267778,13.8707585 102.410759,14.2302024 102.410759,14.6699991 C102.410759,15.0421349 102.267778,15.3719775 101.98181,15.659537 C101.695843,15.9470964 101.340431,16.090874 100.915565,16.090874 L94.5180936,16.090874 Z M116.504806,13.173006 C116.946013,13.173006 117.305509,13.3083261 117.583306,13.5789703 C117.861104,13.8496144 118,14.2048296 118,14.6446264 C118,15.0844232 117.861104,15.4354096 117.583306,15.6975961 C117.305509,15.9597826 116.946013,16.090874 116.504806,16.090874 L112.656518,16.090874 L112.656518,29.3862025 C112.656518,29.8259993 112.501281,30.1939007 112.190802,30.4899178 C111.880323,30.7859348 111.496315,30.9339412 111.038767,30.9339412 C110.581219,30.9339412 110.205381,30.7859348 109.911243,30.4899178 C109.617105,30.1939007 109.470038,29.8259993 109.470038,29.3862025 L109.470038,16.090874 L105.621751,16.090874 C105.180544,16.090874 104.821047,15.9555539 104.54325,15.6849097 C104.265453,15.4142655 104.126556,15.0590504 104.126556,14.6192536 C104.126556,14.1963721 104.269538,13.8496144 104.555506,13.5789703 C104.841473,13.3083261 105.196885,13.173006 105.621751,13.173006 L116.504806,13.173006 Z" id="logo"></path>
        </g>
    </g>
</svg>