<?xml version="1.0" encoding="UTF-8"?>
<svg width="49px" height="24px" viewBox="0 0 49 24" version="1.1" xmlns="http://www.w3.org/2000/svg" xmlns:xlink="http://www.w3.org/1999/xlink">
    <!-- Generator: Sketch 52.1 (67048) - http://www.bohemiancoding.com/sketch -->
    <title>request_send</title>
    <desc>Created with Sketch.</desc>
    <g id="Symbols" stroke="none" stroke-width="1" fill="none" fill-rule="evenodd">
        <g id="request_send" fill="#0FB77B">
            <g>
                <path d="M48.1396069,23.9221364 C48.1576416,23.9185909 48.1752601,23.9138182 48.1930173,23.9093182 C48.2081387,23.9055 48.2233988,23.9023636 48.2382428,23.8978636 C48.2555838,23.8926818 48.2725087,23.8862727 48.2894335,23.8802727 C48.3044162,23.8749545 48.3195376,23.8701818 48.3343815,23.8640455 C48.3503353,23.8575 48.3657341,23.8498636 48.3812717,23.8426364 C48.3963931,23.8355455 48.4117919,23.829 48.4266358,23.8210909 C48.4414798,23.8133182 48.4554913,23.8044545 48.4699191,23.796 C48.484763,23.7872727 48.4997457,23.7790909 48.5141734,23.7695455 C48.5295723,23.7594545 48.5438613,23.7482727 48.5587052,23.7373636 C48.5711908,23.7282273 48.5839538,23.7196364 48.5961618,23.7098182 C48.6186358,23.6916818 48.64,23.6723182 48.6608092,23.6524091 C48.6645549,23.6488636 48.668578,23.6458636 48.6723237,23.6421818 C48.6762081,23.6383636 48.6795376,23.6341364 48.6832832,23.6301818 C48.7032601,23.61 48.7226821,23.5892727 48.7409942,23.5674545 C48.7516763,23.5546364 48.7609711,23.5412727 48.7709595,23.5280455 C48.7812254,23.5144091 48.7920462,23.5011818 48.8016185,23.487 C48.8118844,23.4718636 48.8209017,23.4561818 48.8303353,23.4406364 C48.8382428,23.4275455 48.8467052,23.4147273 48.8540578,23.4012273 C48.862659,23.3855455 48.8698728,23.3693182 48.8775029,23.3533636 C48.8843006,23.3391818 48.8915145,23.3251364 48.8977572,23.3105455 C48.9044162,23.2948636 48.9096879,23.2789091 48.9155145,23.2629545 C48.9212023,23.2474091 48.9273064,23.232 48.9321618,23.2161818 C48.9371561,23.2000909 48.940763,23.1837273 48.9449249,23.1673636 C48.948948,23.1512727 48.9536647,23.1354545 48.9568555,23.1192273 C48.9607399,23.1 48.9630983,23.0806364 48.9658728,23.0612727 C48.967815,23.0476364 48.9704509,23.0341364 48.9718382,23.0203636 C48.9753064,22.9864091 48.9771098,22.9524545 48.9771098,22.9183636 L48.9771098,1.05818182 C48.9771098,0.493227273 48.5113988,0.0354545455 47.9366474,0.0354545455 L15.1620809,0.0354545455 C15.1529249,0.0354545455 15.1440462,0.0365454545 15.1348902,0.0368181818 C15.115052,0.0373636364 15.0953526,0.0381818182 15.0756532,0.0398181818 C15.0599769,0.0410454545 15.0444393,0.0428181818 15.0289017,0.0448636364 C15.0111445,0.0470454545 14.993526,0.0496363636 14.9759075,0.0527727273 C14.9593988,0.0556363636 14.9430289,0.0590454545 14.9267977,0.0627272727 C14.910289,0.0665454545 14.8937803,0.0706363636 14.8774104,0.0752727273 C14.8611792,0.0797727273 14.8452254,0.0846818182 14.8294104,0.0898636364 C14.8131792,0.0953181818 14.796948,0.101045455 14.7809942,0.107318182 C14.7658728,0.113181818 14.7510289,0.119181818 14.7363237,0.125727273 C14.7199538,0.132954545 14.7037225,0.140727273 14.6876301,0.148772727 C14.673896,0.155727273 14.6604393,0.162818182 14.6471214,0.170318182 C14.6310289,0.179318182 14.6152139,0.188863636 14.5995376,0.198681818 C14.5866358,0.206863636 14.5740116,0.215318182 14.561526,0.223909091 C14.5468208,0.234136364 14.5322543,0.244772727 14.5179653,0.255954545 C14.5049249,0.266181818 14.4921618,0.276681818 14.4795376,0.287454545 C14.467052,0.298227273 14.4547052,0.309 14.4426358,0.320454545 C14.4289017,0.333409091 14.4157225,0.346909091 14.4026821,0.360545455 C14.3961618,0.367363636 14.3892254,0.373363636 14.3829827,0.380318182 C14.379237,0.384409091 14.3763237,0.388909091 14.3727168,0.393 C14.3596763,0.407863636 14.3474682,0.423409091 14.3352601,0.439090909 C14.3263815,0.450545455 14.3172254,0.462 14.3089017,0.473727273 C14.2980809,0.489 14.2880925,0.504681818 14.278104,0.5205 C14.2699191,0.533454545 14.2614566,0.546272727 14.2539653,0.5595 C14.2452254,0.574772727 14.2375954,0.590454545 14.2296879,0.606136364 C14.222474,0.620454545 14.2149827,0.634772727 14.2084624,0.649363636 C14.2016647,0.664772727 14.1956994,0.680727273 14.1897341,0.696409091 C14.1837688,0.711818182 14.1776647,0.727090909 14.1725318,0.742636364 C14.1673988,0.758318182 14.163237,0.774272727 14.1587977,0.790227273 C14.1543584,0.806590909 14.1496416,0.822818182 14.145896,0.839318182 C14.1424277,0.854727273 14.1400694,0.870409091 14.1372948,0.885954545 C14.1342428,0.903681818 14.1311908,0.921409091 14.1289711,0.939136364 C14.1271676,0.953863636 14.1263353,0.968863636 14.1252254,0.983863636 C14.1238382,1.00295455 14.1225896,1.02204545 14.1223121,1.04127273 C14.1221734,1.04686364 14.1214798,1.05231818 14.1214798,1.05790909 L14.1214798,7.365 C14.1214798,7.92995455 14.5871908,8.38772727 15.1619422,8.38772727 C15.7366936,8.38772727 16.2024046,7.92995455 16.2024046,7.365 L16.2024046,3.32931818 L25.452948,11.3798182 C25.4046705,11.4132273 25.3581965,11.4501818 25.3149133,11.4925909 L16.2022659,20.4499091 L16.2022659,13.7288182 C16.2022659,13.1638636 15.7365549,12.7060909 15.1618035,12.7060909 C14.587052,12.7060909 14.121341,13.1638636 14.121341,13.7288182 L14.121341,14.9784545 L8.7456185,14.9784545 C8.17086705,14.9784545 7.70515607,15.4362273 7.70515607,16.0011818 C7.70515607,16.5661364 8.17086705,17.0239091 8.7456185,17.0239091 L14.121341,17.0239091 L14.121341,22.9190455 C14.121341,23.484 14.587052,23.9417727 15.1618035,23.9417727 L47.9363699,23.9417727 C47.9706358,23.9417727 48.0049017,23.94 48.0390289,23.9367273 C48.0549827,23.9352273 48.0703815,23.9322273 48.0860578,23.9300455 C48.1040925,23.9275909 48.1218497,23.9255455 48.1396069,23.9221364 Z M46.8960462,20.4500455 L37.7832601,11.4927273 C37.7774335,11.487 37.7711908,11.4822273 37.7652254,11.4767727 L44.6160462,5.76354545 C45.0541503,5.39809091 45.1079769,4.75281818 44.736185,4.32204545 C44.3646705,3.89154545 43.7082081,3.83836364 43.2696879,4.20395455 L31.5636532,13.9662273 L17.9066821,2.08104545 L46.8960462,2.08104545 L46.8960462,20.4500455 Z M26.7865434,12.9392727 C26.860763,12.8663182 26.9209711,12.7850455 26.968,12.6985909 L30.8594682,16.0851818 C31.056185,16.2563182 31.3025665,16.3422273 31.5492254,16.3422273 C31.7886705,16.3422273 32.0279769,16.2613636 32.222474,16.0993636 L36.1883006,12.792 C36.2243699,12.8438182 36.2650173,12.8933182 36.3117688,12.9392727 L45.4244162,21.8965909 L17.673896,21.8965909 L26.7865434,12.9392727 Z" id="Shape" fill-rule="nonzero"></path>
                <path d="M2.04046243,11.6830909 L19.612763,11.6830909 C20.1875145,11.6830909 20.6532254,11.2253182 20.6532254,10.6603636 C20.6532254,10.0954091 20.1875145,9.63763636 19.612763,9.63763636 L2.04046243,9.63763636 C1.46571098,9.63763636 1,10.0954091 1,10.6603636 C1,11.2253182 1.46571098,11.6830909 2.04046243,11.6830909 Z" id="Path"></path>
                <path d="M2.86127168,6.04704545 L10.7514451,6.04704545 C11.3261965,6.04704545 11.7919075,5.58927273 11.7919075,5.02431818 C11.7919075,4.45936364 11.3261965,4.00159091 10.7514451,4.00159091 L2.86127168,4.00159091 C2.28652023,4.00159091 1.82080925,4.45936364 1.82080925,5.02431818 C1.82080925,5.58927273 2.28652023,6.04704545 2.86127168,6.04704545 Z" id="Path"></path>
                <path d="M8.67052023,19.2968182 L1.04046243,19.2968182 C0.465710983,19.2968182 0,19.7545909 0,20.3195455 C0,20.8845 0.465710983,21.3422727 1.04046243,21.3422727 L8.67052023,21.3422727 C9.24527168,21.3422727 9.71098266,20.8845 9.71098266,20.3195455 C9.71098266,19.7545909 9.24527168,19.2968182 8.67052023,19.2968182 Z" id="Path"></path>
            </g>
        </g>
    </g>
</svg>