<?xml version="1.0" encoding="UTF-8"?>
<svg width="47px" height="45px" viewBox="0 0 47 45" version="1.1" xmlns="http://www.w3.org/2000/svg" xmlns:xlink="http://www.w3.org/1999/xlink">
    <!-- Generator: Sketch 52.1 (67048) - http://www.bohemiancoding.com/sketch -->
    <title>UI/UX_icon</title>
    <desc>Created with Sketch.</desc>
    <g id="Symbols" stroke="none" stroke-width="1" fill="none" fill-rule="evenodd">
        <g id="UI/UX_icon" transform="translate(-7.000000, -6.000000)">
            <g transform="translate(30.000000, 29.000000) rotate(-20.000000) translate(-30.000000, -29.000000) translate(7.000000, 7.000000)">
                <path d="M23.6169761,35.708224 C23.6727609,35.5159062 23.729333,35.3220438 23.7866922,35.1266369 C25.2845824,30.0237414 12.6920908,33.9139066 8.27272249,32.6635385 C3.85335418,31.4131704 0.724936355,29.226015 0.0738353548,22.7696999 C-0.577265645,16.3133848 3.11943448,9.17312488 9.51689018,4.79138111 C19.754756,-2.22073537 35.7048008,-2.89851862 42.7496289,12.09689 C49.5361834,26.5425449 45.7316445,38.7333732 30.9946028,42.8939225 C28.8948529,43.4867222 26.4391571,43.8257364 23.6275155,43.9109651 C23.2724456,43.9693241 22.8786603,44 22.4424197,44 C19.0154451,44 18.2084677,42.1069265 18.2084677,39.771702 C18.2084677,37.4364775 20.1040726,35.5434041 22.4424197,35.5434041 C22.84995,35.5434041 23.2440325,35.6009042 23.6169761,35.708224 Z" id="Combined-Shape" fill="#3A82D1"></path>
                <ellipse id="Oval" fill="#EAF4FF" cx="10.4545455" cy="22.6875" rx="3.48484848" ry="3.4375"></ellipse>
                <ellipse id="Oval" fill="#EAF4FF" cx="14.6363636" cy="13.0625" rx="2.09090909" ry="2.0625"></ellipse>
                <ellipse id="Oval" fill="#EAF4FF" cx="23.6969697" cy="9.625" rx="2.78787879" ry="2.75"></ellipse>
                <ellipse id="Oval" fill="#EAF4FF" cx="33.4545455" cy="12.375" rx="2.78787879" ry="2.75"></ellipse>
            </g>
        </g>
    </g>
</svg>